<?xml version="1.0" encoding="UTF-8"?>
<!DOCTYPE svg PUBLIC "-//W3C//DTD SVG 1.1//EN" "http://www.w3.org/Graphics/SVG/1.1/DTD/svg11.dtd">

<svg xmlns="http://www.w3.org/2000/svg" xmlns:xlink="http://www.w3.org/1999/xlink" xmlns:xs="http://www.w3.org/2001/XMLSchema" xmlns:wb="http://www.ti.com/webench" version="1.1" width="100%" height="100%" viewBox="0 0 2525.0 885.0" preserveAspectRatio="xMidYMid meet">
  <defs>
    <g id="WB_CONTINUATION">
      <circle xmlns="" opacity="0.01" fill="#ffffff" stroke="#000000" stroke-width="0" cx="0" cy="0" r="14" />
      <line fill="none" stroke="#CC0000" stroke-width="2" x1="0" y1="10" x2="0" y2="-10" />
      <line fill="none" stroke="#CC0000" stroke-width="2" x1="-10" y1="-10" x2="10" y2="-10" />
    </g>
    <g id="WB_BLOCK_IO">
      <circle xmlns="" opacity="0.01" fill="#ffffff" stroke="#000000" stroke-width="0" cx="0" cy="0" r="14" />
      <line stroke="#CC0000" fill="none" stroke-width="2" x1="-5" y1="0" x2="5" y2="0" />
    </g>
    <g id="WB_ZERO_VOLT_SOURCE">
      <circle xmlns="" opacity="0.01" fill="#ffffff" stroke="#000000" stroke-width="0" cx="0" cy="0" r="14" />
      <line stroke="#CC0000" fill="none" stroke-width="2" x1="-5" y1="0" x2="5" y2="0" />
    </g>
    <g id="WB_GND">
      <circle xmlns="" opacity="0.01" fill="#ffffff" stroke="#000000" stroke-width="0" cx="0" cy="0" r="14" />
      <line fill="none" stroke="black" stroke-width="2" x1="0" y1="-10" x2="0" y2="0" />
      <line fill="none" stroke="black" stroke-width="2" x1="-13" y1="0" x2="13" y2="0" />
      <line fill="none" stroke="black" stroke-width="2" x1="-9" y1="4" x2="9" y2="4" />
      <line fill="none" stroke="black" stroke-width="2" x1="-3" y1="8" x2="3" y2="8" />
    </g>
    <g id="WB_RESISTOR">
      <circle xmlns="" opacity="0.01" fill="#ffffff" stroke="#000000" stroke-width="0" cx="0" cy="0" r="14" />
      <polyline fill="none" stroke="#115566" stroke-width="2" stroke-linecap="round" stroke-linejoin="round" points="30,0 20,0 15,-6 7.5,6 0,-6 -7.5,6 -15,-6 -20,0 -30,0" />
    </g>
    <g id="WB_N_MOSFET">
      <circle xmlns="" opacity="0.01" fill="#ffffff" stroke="#000000" stroke-width="0" cx="0" cy="0" r="14" />
      <line y1="0" x2="-5" stroke="#115566" x1="-15" fill="none" stroke-width="2" y2="0" />
      <line y1="-30" x2="15" stroke="#115566" x1="15" fill="none" stroke-width="2" y2="-20" />
      <line y1="30" x2="15" stroke="#115566" x1="15" fill="none" stroke-width="2" y2="20" />
      <polyline stroke="#115566" points="4,-10 4,10  " stroke-linejoin="round" fill="none" stroke-width="2" stroke-linecap="round" />
      <polyline stroke="#115566" points="15,-10 15,-8  " stroke-linejoin="round" fill="none" stroke-width="2" stroke-linecap="round" />
      <polyline stroke="#115566" points="15,-8 5,-8  " stroke-linejoin="round" fill="none" stroke-width="2" stroke-linecap="round" />
      <polyline stroke="#115566" points="11,0 15,0  " stroke-linejoin="round" fill="none" stroke-width="2" stroke-linecap="round" />
      <polyline stroke="#115566" points="15,0 15,10  " stroke-linejoin="round" fill="none" stroke-width="2" stroke-linecap="round" />
      <polyline stroke="#115566" points="5,8 14,8  " stroke-linejoin="round" fill="none" stroke-width="2" stroke-linecap="round" />
      <polyline stroke="#115566" points="15,-10 15,-8  " stroke-linejoin="round" fill="none" stroke-width="2" stroke-linecap="round" />
      <polyline stroke="#115566" points="15,-8 4,-8  " stroke-linejoin="round" fill="none" stroke-width="2" stroke-linecap="round" />
      <polyline stroke="#115566" points="4,-10 4,10  " stroke-linejoin="round" fill="none" stroke-width="2" stroke-linecap="round" />
      <polyline stroke="#115566" points="4,8 15,8  " stroke-linejoin="round" fill="none" stroke-width="2" stroke-linecap="round" />
      <polyline stroke="#115566" points="4,0 9,-5  " stroke-linejoin="round" fill="none" stroke-width="2" stroke-linecap="round" />
      <polyline stroke="#115566" points="9,-5 9,5  " stroke-linejoin="round" fill="none" stroke-width="2" stroke-linecap="round" />
      <polyline stroke="#115566" points="9,5 4,0  " stroke-linejoin="round" fill="none" stroke-width="2" stroke-linecap="round" />
      <polyline stroke="#115566" points="9,0 15,0  " stroke-linejoin="round" fill="none" stroke-width="2" stroke-linecap="round" />
      <polyline stroke="#115566" points="15,0 15,10  " stroke-linejoin="round" fill="none" stroke-width="2" stroke-linecap="round" />
      <polyline stroke="#115566" points="-5,0 0,0  " stroke-linejoin="round" fill="none" stroke-width="2" stroke-linecap="round" />
      <polyline stroke="#115566" points="0,10 0,-10  " stroke-linejoin="round" fill="none" stroke-width="2" stroke-linecap="round" />
      <polyline stroke="#115566" points="15,-20 15,-10  " stroke-linejoin="round" fill="none" stroke-width="2" stroke-linecap="round" />
      <polyline stroke="#115566" points="15,10 15,20  " stroke-linejoin="round" fill="none" stroke-width="2" stroke-linecap="round" />
    </g>
    <g id="WB_CURRENT_PROBE">
      <circle xmlns="" opacity="0.01" fill="#ffffff" stroke="#000000" stroke-width="0" cx="0" cy="0" r="14" />
      <line stroke="#CC0000" stroke-width="2" stroke-linecap="square" stroke-linejoin="round" x1="-16" y1="0" x2="-10" y2="0" />
      <polyline stroke="#CC0000" stroke-width="2" stroke-linecap="square" stroke-linejoin="round" points="6,0 3,-3.5 3,3.5 6,0 -6,0 " />
      <line stroke="#CC0000" stroke-width="2" stroke-linecap="square" stroke-linejoin="round" x1="10" y1="0" x2="16" y2="0" />
      <rect stroke-width="1" x="-9.5" y="-7" fill="none" stroke="#CC0000" width="19" height="14" />
    </g>
    <g id="WB_VOLTAGE_PROBE">
      <circle xmlns="" opacity="0.01" fill="#ffffff" stroke="#000000" stroke-width="0" cx="0" cy="0" r="14" />
      <rect stroke-width="1" width="20" stroke="#CC0000" x="-10" height="19.5" y="-30" fill="#CC0000" fill-opacity="0.01" />
      <polyline stroke="#CC0000" points="7,-27 4,-22 3,-26 0,-18 -1,-22 -5,-14  " stroke-linejoin="round" fill="none" stroke-width="2" stroke-linecap="round" />
      <line y1="0" x2="0" stroke="#CC0000" x1="0" fill="none" stroke-width="2" y2="-10" />
    </g>
    <g id="WB_PRIM_PULSE_VOLTAGE_SOURCE">
      <circle xmlns="" opacity="0.01" fill="#ffffff" stroke="#000000" stroke-width="0" cx="0" cy="0" r="14" />
      <circle fill-opacity="0.01" fill="#CC0000" stroke="#CC0000" stroke-width="2" cx="0" cy="0" r="14" />
      <line y1="0" x2="-20" stroke="#CC0000" x1="-30" fill="none" stroke-width="2" y2="0" />
      <line y1="0" x2="20" stroke="#CC0000" x1="30" fill="none" stroke-width="2" y2="0" />
      <polyline stroke="#CC0000" points="-7,6 4,8  " stroke-linejoin="round" fill="none" stroke-width="2" stroke-linecap="round" />
      <polyline stroke="#CC0000" points="-7,-6 4,-8  " stroke-linejoin="round" fill="none" stroke-width="2" stroke-linecap="round" />
      <polyline stroke="#CC0000" points="-20,0 -15,0  " stroke-linejoin="round" fill="none" stroke-width="2" stroke-linecap="round" />
      <polyline stroke="#CC0000" points="20,0 15,0  " stroke-linejoin="round" fill="none" stroke-width="2" stroke-linecap="round" />
      <polyline stroke="#CC0000" points="-7,-6 -7,6  " stroke-linejoin="round" fill="none" stroke-width="2" stroke-linecap="round" />
      <polyline stroke="#CC0000" points="4,-8 4,-11  " stroke-linejoin="round" fill="none" stroke-width="2" stroke-linecap="round" />
      <polyline stroke="#CC0000" points="4,8 4,11  " stroke-linejoin="round" fill="none" stroke-width="2" stroke-linecap="round" />
      <line x1="23" y1="-13" x2="23" y2="-7" stroke="#CC0000" fill="none" stroke-width="2" stroke-linecap="round" />
      <line x1="-23" y1="-13" x2="-23" y2="-7" stroke="#CC0000" fill="none" stroke-width="2" stroke-linecap="round" />
      <line x1="-26" y1="-10" x2="-20" y2="-10" stroke="#CC0000" fill="none" stroke-width="2" stroke-linecap="round" />
    </g>
    <g id="WB_CAP_OUTPUT">
      <circle xmlns="" opacity="0.01" fill="#ffffff" stroke="#000000" stroke-width="0" cx="0" cy="0" r="14" />
      <path fill="none" stroke="#CC0000" stroke-width="2" stroke-linecap="round" stroke-linejoin="round" d="M-6.5,12c0.2,0,1.1 -1,2.5 -3c1.5 -2,2.3 -5,2.5 -9c-0.2 -4 -1 -7 -2.5 -9c-1.4 -2 -2.3 -3 -2.5 -3" />
      <line fill="none" stroke="#CC0000" stroke-width="2" x1="4" y1="13" x2="4" y2="-13" />
      <line fill="none" stroke="#CC0000" stroke-width="2" x1="-30" y1="0" x2="-2" y2="0" />
      <line fill="none" stroke="#CC0000" stroke-width="2" x1="4" y1="0" x2="30" y2="0" />
      <line fill="none" stroke="#CC0000" stroke-width="2" x1="14" y1="10" x2="14" y2="6" />
      <line fill="none" stroke="#CC0000" stroke-width="2" x1="12" y1="8" x2="16" y2="8" />
    </g>
    <g id="WB_CAPACITOR">
      <circle xmlns="" opacity="0.01" fill="#ffffff" stroke="#000000" stroke-width="0" cx="0" cy="0" r="14" />
      <line y1="0" x2="20" stroke="#115566" x1="30" fill="none" stroke-width="2" y2="0" />
      <line y1="0" x2="-20" stroke="#115566" x1="-30" fill="none" stroke-width="2" y2="0" />
      <polyline stroke="#115566" points="3,12 3,-12  " stroke-linejoin="round" fill="none" stroke-width="2" stroke-linecap="round" />
      <polyline stroke="#115566" points="-20,0 -3,0  " stroke-linejoin="round" fill="none" stroke-width="2" stroke-linecap="round" />
      <polyline stroke="#115566" points="3,0 20,0  " stroke-linejoin="round" fill="none" stroke-width="2" stroke-linecap="round" />
      <polyline stroke="#115566" points="-3,12 -3,-12  " stroke-linejoin="round" fill="none" stroke-width="2" stroke-linecap="round" />
    </g>
    <g id="WB_INDUCTOR">
      <circle xmlns="" opacity="0.01" fill="#ffffff" stroke="#000000" stroke-width="0" cx="0" cy="0" r="14" />
      <path fill="none" stroke="#115566" stroke-width="2" stroke-linecap="round" stroke-linejoin="round" d="M-10,0c0-0.6-0.2-1.8-0.6-3.3c-0.5-2.4-2-3.7-4.4-4c-2.4,0.3-3.8,1.6-4.3,4c-0.6,2.3-0.8,3.6-0.7,3M-20,0H-30" />
      <path fill="none" stroke="#115566" stroke-width="2" stroke-linecap="round" stroke-linejoin="round" d="M0,0c0-0.6-0.2-1.8-0.6-3.3c-0.5-2.4-2-3.7-4.4-4c-2.4,0.3-3.8,1.6-4.3,4c-0.6,2.3-0.8,3.6-0.7,4" />
      <path fill="none" stroke="#115566" stroke-width="2" stroke-linecap="round" stroke-linejoin="round" d="M10,0c0-0.6-0.2-1.8-0.6-3.3c-0.5-2.4-2-3.7-4.4-4c-2.4,0.3-3.8,1.6-4.3,4c-0.6,2.3-0.8,3.6-0.7,4" />
      <path fill="none" stroke="#115566" stroke-width="2" stroke-linecap="round" stroke-linejoin="round" d="M30,0H20c0-0.6-0.2-1.8-0.6-3.3c-0.5-2.4-2-3.7-4.4-4c-2.4,0.3-3.8,1.6-4.3,4c-0.6,2.3-0.8,3.6-0.7,4" />
      <path fill="none" stroke="#115566" stroke-width="2" stroke-linecap="round" stroke-linejoin="round" d=" M10,0 c0.1,0.4,0.1,0.6,0,0.7" />
      <path fill="none" stroke="#115566" stroke-width="2" stroke-linecap="round" stroke-linejoin="round" d=" M0,0  c0.1,0.4,0.1,0.6,0,0.7" />
      <path fill="none" stroke="#115566" stroke-width="2" stroke-linecap="round" stroke-linejoin="round" d=" M-10,0c0.1,0.4,0.1,0.6,0,0.7" />
    </g>
    <g id="WB_LM25148RGY">
      <circle xmlns="" opacity="0.01" fill="#ffffff" stroke="#000000" stroke-width="0" cx="0" cy="0" r="14" />
      <line fill="none" stroke="#000000" stroke-width="2" stroke-linecap="round" stroke-linejoin="round" x1="20" y1="250" x2="170" y2="250" />
      <line fill="none" stroke="#000000" stroke-width="2" stroke-linecap="round" stroke-linejoin="round" x1="170" y1="250" x2="170" y2="-20" />
      <line fill="none" stroke="#000000" stroke-width="2" stroke-linecap="round" stroke-linejoin="round" x1="170" y1="-20" x2="20" y2="-20" />
      <line fill="none" stroke="#000000" stroke-width="2" stroke-linecap="round" stroke-linejoin="round" x1="20" y1="-20" x2="20" y2="250" />
      <text id="partNumber_label" x="95" y="-7" style="font-family:arial;font-weight:bold;font-size:12px;text-anchor:middle;">LM25148RGY</text>
      <line fill="none" stroke="#000000" stroke-width="2" stroke-linecap="round" stroke-linejoin="round" x1="190" y1="170" x2="170" y2="170" />
      <text id="1" x="166" y="174" transform="rotate(0,166,174)" style="font-family:arial;font-weight:normal;font-size:9px;text-anchor:end;">NC</text>
      <line fill="none" stroke="#000000" stroke-width="2" stroke-linecap="round" stroke-linejoin="round" x1="0" y1="230" x2="20" y2="230" />
      <text id="2" x="24" y="234" transform="rotate(0,24,234)" style="font-family:arial;font-weight:normal;font-size:9px;text-anchor:start;">NC</text>
      <line fill="none" stroke="#000000" stroke-width="2" stroke-linecap="round" stroke-linejoin="round" x1="0" y1="210" x2="20" y2="210" />
      <text id="3" x="24" y="214" transform="rotate(0,24,214)" style="font-family:arial;font-weight:normal;font-size:9px;text-anchor:start;">CNFG</text>
      <line fill="none" stroke="#000000" stroke-width="2" stroke-linecap="round" stroke-linejoin="round" x1="190" y1="140" x2="170" y2="140" />
      <text id="4" x="166" y="144" transform="rotate(0,166,144)" style="font-family:arial;font-weight:normal;font-size:9px;text-anchor:end;">RT</text>
      <line fill="none" stroke="#000000" stroke-width="2" stroke-linecap="round" stroke-linejoin="round" x1="0" y1="190" x2="20" y2="190" />
      <text id="5" x="24" y="194" transform="rotate(0,24,194)" style="font-family:arial;font-weight:normal;font-size:9px;text-anchor:start;">EXTCOMP</text>
      <line fill="none" stroke="#000000" stroke-width="2" stroke-linecap="round" stroke-linejoin="round" x1="0" y1="170" x2="20" y2="170" />
      <text id="6" x="24" y="174" transform="rotate(0,24,174)" style="font-family:arial;font-weight:normal;font-size:9px;text-anchor:start;">FB</text>
      <line fill="none" stroke="#000000" stroke-width="2" stroke-linecap="round" stroke-linejoin="round" x1="190" y1="210" x2="170" y2="210" />
      <text id="7" x="166" y="214" transform="rotate(0,166,214)" style="font-family:arial;font-weight:normal;font-size:9px;text-anchor:end;">AGND</text>
      <line fill="none" stroke="#000000" stroke-width="2" stroke-linecap="round" stroke-linejoin="round" x1="0" y1="50" x2="20" y2="50" />
      <text id="8" x="24" y="54" transform="rotate(0,24,54)" style="font-family:arial;font-weight:normal;font-size:9px;text-anchor:start;">VDDA</text>
      <line fill="none" stroke="#000000" stroke-width="2" stroke-linecap="round" stroke-linejoin="round" x1="0" y1="30" x2="20" y2="30" />
      <text id="9" x="24" y="34" transform="rotate(0,24,34)" style="font-family:arial;font-weight:normal;font-size:9px;text-anchor:start;">VCC</text>
      <line fill="none" stroke="#000000" stroke-width="2" stroke-linecap="round" stroke-linejoin="round" x1="190" y1="220" x2="170" y2="220" />
      <text id="10" x="166" y="224" transform="rotate(0,166,224)" style="font-family:arial;font-weight:normal;font-size:9px;text-anchor:end;">PGND</text>
      <line fill="none" stroke="#000000" stroke-width="2" stroke-linecap="round" stroke-linejoin="round" x1="190" y1="60" x2="170" y2="60" />
      <text id="11" x="166" y="64" transform="rotate(0,166,64)" style="font-family:arial;font-weight:normal;font-size:9px;text-anchor:end;">LO</text>
      <line fill="none" stroke="#000000" stroke-width="2" stroke-linecap="round" stroke-linejoin="round" x1="0" y1="0" x2="20" y2="0" />
      <text id="12" x="24" y="4" transform="rotate(0,24,4)" style="font-family:arial;font-weight:normal;font-size:9px;text-anchor:start;">VIN</text>
      <line fill="none" stroke="#000000" stroke-width="2" stroke-linecap="round" stroke-linejoin="round" x1="190" y1="20" x2="170" y2="20" />
      <text id="13" x="166" y="24" transform="rotate(0,166,24)" style="font-family:arial;font-weight:normal;font-size:9px;text-anchor:end;">HO</text>
      <line fill="none" stroke="#000000" stroke-width="2" stroke-linecap="round" stroke-linejoin="round" x1="190" y1="40" x2="170" y2="40" />
      <text id="14" x="166" y="44" transform="rotate(0,166,44)" style="font-family:arial;font-weight:normal;font-size:9px;text-anchor:end;">SW</text>
      <line fill="none" stroke="#000000" stroke-width="2" stroke-linecap="round" stroke-linejoin="round" x1="190" y1="0" x2="170" y2="0" />
      <text id="15" x="166" y="4" transform="rotate(0,166,4)" style="font-family:arial;font-weight:normal;font-size:9px;text-anchor:end;">CBOOT</text>
      <line fill="none" stroke="#000000" stroke-width="2" stroke-linecap="round" stroke-linejoin="round" x1="190" y1="120" x2="170" y2="120" />
      <text id="16" x="166" y="124" transform="rotate(0,166,124)" style="font-family:arial;font-weight:normal;font-size:9px;text-anchor:end;">VCCX</text>
      <line fill="none" stroke="#000000" stroke-width="2" stroke-linecap="round" stroke-linejoin="round" x1="0" y1="130" x2="20" y2="130" />
      <text id="17" x="24" y="134" transform="rotate(0,24,134)" style="font-family:arial;font-weight:normal;font-size:9px;text-anchor:start;">PG</text>
      <line fill="none" stroke="#000000" stroke-width="2" stroke-linecap="round" stroke-linejoin="round" x1="0" y1="140" x2="20" y2="140" />
      <text id="18" x="24" y="144" transform="rotate(0,24,144)" style="font-family:arial;font-weight:normal;font-size:9px;text-anchor:start;">PFM_SYNC</text>
      <line fill="none" stroke="#000000" stroke-width="2" stroke-linecap="round" stroke-linejoin="round" x1="0" y1="100" x2="20" y2="100" />
      <text id="19" x="24" y="104" transform="rotate(0,24,104)" style="font-family:arial;font-weight:normal;font-size:9px;text-anchor:start;">EN</text>
      <line fill="none" stroke="#000000" stroke-width="2" stroke-linecap="round" stroke-linejoin="round" x1="190" y1="80" x2="170" y2="80" />
      <text id="20" x="166" y="84" transform="rotate(0,166,84)" style="font-family:arial;font-weight:normal;font-size:9px;text-anchor:end;">ISNS+</text>
      <line fill="none" stroke="#000000" stroke-width="2" stroke-linecap="round" stroke-linejoin="round" x1="190" y1="100" x2="170" y2="100" />
      <text id="21" x="166" y="104" transform="rotate(0,166,104)" style="font-family:arial;font-weight:normal;font-size:9px;text-anchor:end;">VOUT</text>
      <line fill="none" stroke="#000000" stroke-width="2" stroke-linecap="round" stroke-linejoin="round" x1="0" y1="220" x2="20" y2="220" />
      <text id="22" x="24" y="224" transform="rotate(0,24,224)" style="font-family:arial;font-weight:normal;font-size:9px;text-anchor:start;">NC</text>
      <line fill="none" stroke="#000000" stroke-width="2" stroke-linecap="round" stroke-linejoin="round" x1="0" y1="240" x2="20" y2="240" />
      <text id="23" x="24" y="244" transform="rotate(0,24,244)" style="font-family:arial;font-weight:normal;font-size:9px;text-anchor:start;">NC</text>
      <line fill="none" stroke="#000000" stroke-width="2" stroke-linecap="round" stroke-linejoin="round" x1="190" y1="180" x2="170" y2="180" />
      <text id="24" x="166" y="184" transform="rotate(0,166,184)" style="font-family:arial;font-weight:normal;font-size:9px;text-anchor:end;">NC</text>
      <line fill="none" stroke="#000000" stroke-width="2" stroke-linecap="round" stroke-linejoin="round" x1="190" y1="240" x2="170" y2="240" />
      <text id="25" x="166" y="244" transform="rotate(0,166,244)" style="font-family:arial;font-weight:normal;font-size:9px;text-anchor:end;">EP</text>
    </g>
    <g id="WB_SOURCE_RESISTOR">
      <circle xmlns="" opacity="0.01" fill="#ffffff" stroke="#000000" stroke-width="0" cx="0" cy="0" r="14" />
      <polyline fill="none" stroke="#CC0000" stroke-width="2" stroke-linecap="round" stroke-linejoin="round" points="30,0 20,0 15,-6 7.5,6 0,-6 -7.5,6 -15,-6 -20,0 -30,0" />
    </g>
    <g id="WB_PRIMITIVE_BATTERY">
      <circle xmlns="" opacity="0.01" fill="#ffffff" stroke="#000000" stroke-width="0" cx="0" cy="0" r="14" />
      <line fill="none" stroke="#CC0000" stroke-width="2" x1="-8" y1="0" x2="-30" y2="0" />
      <line fill="none" stroke="#CC0000" stroke-width="2" x1="-7" y1="12" x2="-7" y2="-12" />
      <line fill="none" stroke="#CC0000" stroke-width="2" x1="4" y1="12" x2="4" y2="-12" />
      <line fill="none" stroke="#CC0000" stroke-width="2" x1="30" y1="0" x2="11" y2="0" />
      <line fill="none" stroke="#CC0000" stroke-width="2" x1="-2" y1="5" x2="-2" y2="-5" />
      <line fill="none" stroke="#CC0000" stroke-width="2" x1="-1" y1="5" x2="-1" y2="-5" />
      <line fill="none" stroke="#CC0000" stroke-width="2" x1="-14" y1="-9" x2="-14" y2="-15" />
      <line fill="none" stroke="#CC0000" stroke-width="2" x1="-11" y1="-12" x2="-17" y2="-12" />
      <line fill="none" stroke="#CC0000" stroke-width="2" x1="13" y1="-10" x2="13" y2="-15" />
      <line fill="none" stroke="#CC0000" stroke-width="2" x1="10" y1="5" x2="10" y2="-5" />
      <line fill="none" stroke="#CC0000" stroke-width="2" x1="9" y1="5" x2="9" y2="-5" />
    </g>
    <g id="WB_CURRENT_LOAD">
      <circle xmlns="" opacity="0.01" fill="#ffffff" stroke="#000000" stroke-width="0" cx="0" cy="0" r="14" />
      <path fill="none" stroke="#CC0000" stroke-width="2" stroke-linecap="round" stroke-linejoin="round" d="M-15,0c 0.1, 4.2, 1.6, 7.7, 4.4, 10.6c 2.8, 2.8, 6.4, 4.3, 10.6, 4.4c 4.3-0.1, 7.8-1.6, 10.6 -4.4c 2.9-2.9, 4.3-6.4, 4.4-10.6" />
      <path fill="none" stroke="#CC0000" stroke-width="2" stroke-linecap="round" stroke-linejoin="round" d="M15,0c -0.1,-4.2,-1.6,-7.7,-4.4,-10.6c-2.8,-2.8,-6.4,-4.3,-10.6,-4.4c-4.3,0.1 -7.8,1.6 -10.6,4.4c-2.9,2.9 -4.3,6.4 -4.4,10.6" />
      <line fill="none" stroke="#CC0000" stroke-width="2" x1="30" y1="0" x2="15" y2="0" />
      <line fill="none" stroke="#CC0000" stroke-width="2" x1="-15" y1="0" x2="-30" y2="0" />
      <line fill="none" stroke="#CC0000" stroke-width="2" stroke-linecap="round" stroke-linejoin="round" x1="3" y1="7" x2="12" y2="0" />
      <line fill="none" stroke="#CC0000" stroke-width="2" stroke-linecap="round" stroke-linejoin="round" x1="3" y1="-7" x2="12" y2="0" />
      <line fill="none" stroke="#CC0000" stroke-width="2" stroke-linecap="round" stroke-linejoin="round" x1="12" y1="0" x2="-12" y2="0" />
    </g>
    <g id="WB_BATTERY">
      <circle xmlns="" opacity="0.01" fill="#ffffff" stroke="#000000" stroke-width="0" cx="0" cy="0" r="14" />
      <line fill="none" stroke="#CC0000" stroke-width="2" x1="-8" y1="0" x2="-30" y2="0" />
      <line fill="none" stroke="#CC0000" stroke-width="2" x1="-7" y1="12" x2="-7" y2="-12" />
      <line fill="none" stroke="#CC0000" stroke-width="2" x1="4" y1="12" x2="4" y2="-12" />
      <line fill="none" stroke="#CC0000" stroke-width="2" x1="30" y1="0" x2="11" y2="0" />
      <line fill="none" stroke="#CC0000" stroke-width="2" x1="-2" y1="5" x2="-2" y2="-5" />
      <line fill="none" stroke="#CC0000" stroke-width="2" x1="-1" y1="5" x2="-1" y2="-5" />
      <line fill="none" stroke="#CC0000" stroke-width="2" x1="-14" y1="-9" x2="-14" y2="-15" />
      <line fill="none" stroke="#CC0000" stroke-width="2" x1="-11" y1="-12" x2="-17" y2="-12" />
      <line fill="none" stroke="#CC0000" stroke-width="2" x1="13" y1="-10" x2="13" y2="-15" />
      <line fill="none" stroke="#CC0000" stroke-width="2" x1="10" y1="5" x2="10" y2="-5" />
      <line fill="none" stroke="#CC0000" stroke-width="2" x1="9" y1="5" x2="9" y2="-5" />
    </g>
  </defs>
  <use id="Rpg" class="comp" xlink:href="#WB_RESISTOR" x="885.0" y="225.0" transform="rotate(-90, 885.0, 225.0)" partNo="CRCW0603100KFKEA" thermalId="0603" resistance="100kOhm" manufacturer="Vishay-Dale" />
  <text for="Rpg" x="900.0" y="225.0" style="font-family:arial;font-size:13px;stroke-width:0.5;stroke:#115566;fill:#115566;">Rpg</text>
  <text for="Rpg" x="900.0" y="235.0" style="font-family:arial;font-size:10px;stroke-width:0.1;stroke:#CC0000;fill:#CC0000;">100kOhm</text>
  <use id="GND5" class="other" xlink:href="#WB_GND" x="1435.0" y="560.0" />
  <use id="GND6" class="other" xlink:href="#WB_GND" x="645.0" y="270.0" />
  <use id="GND2" class="other" xlink:href="#WB_GND" x="790.0" y="270.0" />
  <use id="M2" class="comp" xlink:href="#WB_N_MOSFET" x="1820.0" y="445.0" partNo="CSD17577Q5A" thermalId="TRANS_NexFET_Q5A" vdsmax="30V" idsmax="60Amps" manufacturer="Texas Instruments" />
  <text for="M2" x="1800.0" y="430.0" style="font-family:arial;font-size:13px;stroke-width:0.5;stroke:#115566;fill:#115566;">M2</text>
  <text for="M2" x="1800.0" y="465.0" style="font-family:arial;font-size:10px;stroke-width:0.1;stroke:#CC0000;fill:#CC0000;">30V</text>
  <text for="M2" x="1800.0" y="475.0" style="font-family:arial;font-size:10px;stroke-width:0.1;stroke:#CC0000;fill:#CC0000;">60Amps</text>
  <use id="Rt" class="comp" xlink:href="#WB_RESISTOR" x="1435.0" y="455.0" transform="rotate(-90, 1435.0, 455.0)" partNo="RC0603FR-079K53L" thermalId="0603" resistance="9.53kOhm" manufacturer="Yageo" />
  <text for="Rt" x="1450.0" y="455.0" style="font-family:arial;font-size:13px;stroke-width:0.5;stroke:#115566;fill:#115566;">Rt</text>
  <text for="Rt" x="1450.0" y="465.0" style="font-family:arial;font-size:10px;stroke-width:0.1;stroke:#CC0000;fill:#CC0000;">9.53kOhm</text>
  <use id="Rconfig" class="comp" xlink:href="#WB_RESISTOR" x="940.0" y="545.0" transform="rotate(-90, 940.0, 545.0)" partNo="CRCW060340K2FKEA" thermalId="0603" resistance="40.2kOhm" manufacturer="Vishay-Dale" />
  <text for="Rconfig" x="955.0" y="545.0" style="font-family:arial;font-size:13px;stroke-width:0.5;stroke:#115566;fill:#115566;">Rconfig</text>
  <text for="Rconfig" x="955.0" y="555.0" style="font-family:arial;font-size:10px;stroke-width:0.1;stroke:#CC0000;fill:#CC0000;">40.2kOhm</text>
  <use id="Rfbt" class="comp" xlink:href="#WB_RESISTOR" x="1735.0" y="600.0" transform="rotate(-90, 1735.0, 600.0)" partNo="RC0402FR-0768K1L" thermalId="0402" resistance="68.1kOhm" manufacturer="Yageo" />
  <text for="Rfbt" x="1750.0" y="600.0" style="font-family:arial;font-size:13px;stroke-width:0.5;stroke:#115566;fill:#115566;">Rfbt</text>
  <text for="Rfbt" x="1750.0" y="610.0" style="font-family:arial;font-size:10px;stroke-width:0.1;stroke:#CC0000;fill:#CC0000;">68.1kOhm</text>
  <use id="Rfbb" class="comp" xlink:href="#WB_RESISTOR" x="1735.0" y="680.0" transform="rotate(-90, 1735.0, 680.0)" partNo="CRCW040210K0FKED" thermalId="0402" resistance="10kOhm" manufacturer="Vishay-Dale" />
  <text for="Rfbb" x="1750.0" y="680.0" style="font-family:arial;font-size:13px;stroke-width:0.5;stroke:#115566;fill:#115566;">Rfbb</text>
  <text for="Rfbb" x="1750.0" y="690.0" style="font-family:arial;font-size:10px;stroke-width:0.1;stroke:#CC0000;fill:#CC0000;">10kOhm</text>
  <use id="Cvcc" class="comp" xlink:href="#WB_CAPACITOR" x="790.0" y="220.0" transform="rotate(-90, 790.0, 220.0)" cap="2.2uF" partNo="GRM188R71A225KE15D" thermalId="0603" esr="9mOhm" manufacturer="MuRata" />
  <text for="Cvcc" x="805.0" y="220.0" style="font-family:arial;font-size:13px;stroke-width:0.5;stroke:#115566;fill:#115566;">Cvcc</text>
  <text for="Cvcc" x="805.0" y="230.0" style="font-family:arial;font-size:10px;stroke-width:0.1;stroke:#CC0000;fill:#CC0000;">2.2uF</text>
  <text for="Cvcc" x="805.0" y="240.0" style="font-family:arial;font-size:10px;stroke-width:0.1;stroke:#CC0000;fill:#CC0000;">9mOhm</text>
  <use id="GND4" class="other" xlink:href="#WB_GND" x="1835.0" y="505.0" />
  <use id="L1" class="comp" xlink:href="#WB_INDUCTOR" x="1935.0" y="325.0" partNo="NPI31P1R0MTRF" thermalId="IND_NPI31P" l="1uH" dcr="12mOhm" manufacturer="NIC Components" />
  <text for="L1" x="1915.0" y="310.0" style="font-family:arial;font-size:13px;stroke-width:0.5;stroke:#115566;fill:#115566;">L1</text>
  <text for="L1" x="1915.0" y="345.0" style="font-family:arial;font-size:10px;stroke-width:0.1;stroke:#CC0000;fill:#CC0000;">1uH</text>
  <text for="L1" x="1915.0" y="355.0" style="font-family:arial;font-size:10px;stroke-width:0.1;stroke:#CC0000;fill:#CC0000;">12mOhm</text>
  <use id="Rsense" class="comp" xlink:href="#WB_RESISTOR" x="2035.0" y="325.0" transform="rotate(-180, 2035.0, 325.0)" partNo="PRL1632-R008-F-T1" thermalId="0612" resistance="8mOhm" manufacturer="Susumu Co Ltd" />
  <text for="Rsense" x="2015.0" y="310.0" style="font-family:arial;font-size:13px;stroke-width:0.5;stroke:#115566;fill:#115566;">Rsense</text>
  <text for="Rsense" x="2015.0" y="345.0" style="font-family:arial;font-size:10px;stroke-width:0.1;stroke:#CC0000;fill:#CC0000;">8mOhm</text>
  <use id="Cin" class="comp" xlink:href="#WB_CAPACITOR" x="245.0" y="240.0" transform="rotate(-90, 245.0, 240.0)" cap="4.7uF" partNo="C2012X5R1H475K125AB" thermalId="0805" esr="1mOhm" manufacturer="TDK" />
  <text for="Cin" x="260.0" y="240.0" style="font-family:arial;font-size:13px;stroke-width:0.5;stroke:#115566;fill:#115566;">Cin</text>
  <text for="Cin" x="260.0" y="250.0" style="font-family:arial;font-size:10px;stroke-width:0.1;stroke:#CC0000;fill:#CC0000;">4.7uF</text>
  <text for="Cin" x="260.0" y="260.0" style="font-family:arial;font-size:10px;stroke-width:0.1;stroke:#CC0000;fill:#CC0000;">1mOhm</text>
  <use id="Cboot" class="comp" xlink:href="#WB_CAPACITOR" x="1525.0" y="230.0" transform="rotate(-90, 1525.0, 230.0)" cap="100nF" partNo="GRM155R71A104KA01D" thermalId="0402" esr="1mOhm" manufacturer="MuRata" />
  <text for="Cboot" x="1540.0" y="230.0" style="font-family:arial;font-size:13px;stroke-width:0.5;stroke:#115566;fill:#115566;">Cboot</text>
  <text for="Cboot" x="1540.0" y="240.0" style="font-family:arial;font-size:10px;stroke-width:0.1;stroke:#CC0000;fill:#CC0000;">100nF</text>
  <text for="Cboot" x="1540.0" y="250.0" style="font-family:arial;font-size:10px;stroke-width:0.1;stroke:#CC0000;fill:#CC0000;">1mOhm</text>
  <use id="M1" class="comp" xlink:href="#WB_N_MOSFET" x="1810.0" y="210.0" partNo="CSD17507Q5A" thermalId="TRANS_NexFET_Q5A" vdsmax="30V" idsmax="65Amps" manufacturer="Texas Instruments" />
  <text for="M1" x="1790.0" y="195.0" style="font-family:arial;font-size:13px;stroke-width:0.5;stroke:#115566;fill:#115566;">M1</text>
  <text for="M1" x="1790.0" y="230.0" style="font-family:arial;font-size:10px;stroke-width:0.1;stroke:#CC0000;fill:#CC0000;">30V</text>
  <text for="M1" x="1790.0" y="240.0" style="font-family:arial;font-size:10px;stroke-width:0.1;stroke:#CC0000;fill:#CC0000;">65Amps</text>
  <use id="GND8" class="other" xlink:href="#WB_GND" x="940.0" y="610.0" />
  <use id="Ccomp2" class="comp" xlink:href="#WB_CAPACITOR" x="755.0" y="600.0" transform="rotate(-180, 755.0, 600.0)" cap="33pF" partNo="CL21C330JBANNNC" thermalId="0805" esr="0Ohm" manufacturer="Samsung Electro-Mechanics" />
  <text for="Ccomp2" x="735.0" y="585.0" style="font-family:arial;font-size:13px;stroke-width:0.5;stroke:#115566;fill:#115566;">Ccomp2</text>
  <text for="Ccomp2" x="735.0" y="620.0" style="font-family:arial;font-size:10px;stroke-width:0.1;stroke:#CC0000;fill:#CC0000;">33pF</text>
  <text for="Ccomp2" x="735.0" y="630.0" style="font-family:arial;font-size:10px;stroke-width:0.1;stroke:#CC0000;fill:#CC0000;">0Ohm</text>
  <use id="Ccomp" class="comp" xlink:href="#WB_CAPACITOR" x="705.0" y="530.0" transform="rotate(-180, 705.0, 530.0)" cap="820pF" partNo="CL05C821JB5NNNC" thermalId="0402" esr="0Ohm" manufacturer="Samsung Electro-Mechanics" />
  <text for="Ccomp" x="685.0" y="515.0" style="font-family:arial;font-size:13px;stroke-width:0.5;stroke:#115566;fill:#115566;">Ccomp</text>
  <text for="Ccomp" x="685.0" y="550.0" style="font-family:arial;font-size:10px;stroke-width:0.1;stroke:#CC0000;fill:#CC0000;">820pF</text>
  <text for="Ccomp" x="685.0" y="560.0" style="font-family:arial;font-size:10px;stroke-width:0.1;stroke:#CC0000;fill:#CC0000;">0Ohm</text>
  <use id="Rcomp" class="comp" xlink:href="#WB_RESISTOR" x="800.0" y="530.0" transform="rotate(-180, 800.0, 530.0)" partNo="CRCW04024K53FKED" thermalId="0402" resistance="4.53kOhm" manufacturer="Vishay-Dale" />
  <text for="Rcomp" x="780.0" y="515.0" style="font-family:arial;font-size:13px;stroke-width:0.5;stroke:#115566;fill:#115566;">Rcomp</text>
  <text for="Rcomp" x="780.0" y="550.0" style="font-family:arial;font-size:10px;stroke-width:0.1;stroke:#CC0000;fill:#CC0000;">4.53kOhm</text>
  <use id="GND1" class="other" xlink:href="#WB_GND" x="610.0" y="570.0" />
  <use id="GND7" class="other" xlink:href="#WB_GND" x="245.0" y="375.0" />
  <use id="U1" class="comp" xlink:href="#WB_LM25148RGY" x="1190.0" y="285.0" />
  <text for="U1" x="1170.0" y="285.0" style="font-family:arial;font-size:13px;stroke-width:0.5;stroke:#115566;fill:#115566;">U1</text>
  <use id="Cout" class="comp" xlink:href="#WB_CAPACITOR" x="2180.0" y="545.0" transform="rotate(-90, 2180.0, 545.0)" cap="10uF" partNo="GRM31CR71E106KA12L" thermalId="1206_180" esr="4mOhm" manufacturer="MuRata" />
  <text for="Cout" x="2195.0" y="545.0" style="font-family:arial;font-size:13px;stroke-width:0.5;stroke:#115566;fill:#115566;">Cout</text>
  <text for="Cout" x="2195.0" y="555.0" style="font-family:arial;font-size:10px;stroke-width:0.1;stroke:#CC0000;fill:#CC0000;">10uF</text>
  <text for="Cout" x="2195.0" y="565.0" style="font-family:arial;font-size:10px;stroke-width:0.1;stroke:#CC0000;fill:#CC0000;">4mOhm</text>
  <use id="GND1" class="other" xlink:href="#WB_GND" x="1580.0" y="785.0" />
  <use id="Cvdda" class="comp" xlink:href="#WB_CAPACITOR" x="645.0" y="220.0" transform="rotate(-90, 645.0, 220.0)" cap="100nF" partNo="GRM155R71A104KA01D" thermalId="0402" esr="1mOhm" manufacturer="MuRata" />
  <text for="Cvdda" x="660.0" y="220.0" style="font-family:arial;font-size:13px;stroke-width:0.5;stroke:#115566;fill:#115566;">Cvdda</text>
  <text for="Cvdda" x="660.0" y="230.0" style="font-family:arial;font-size:10px;stroke-width:0.1;stroke:#CC0000;fill:#CC0000;">100nF</text>
  <text for="Cvdda" x="660.0" y="240.0" style="font-family:arial;font-size:10px;stroke-width:0.1;stroke:#CC0000;fill:#CC0000;">1mOhm</text>
  <use id="Vin" class="other" xlink:href="#WB_BATTERY" x="100.0" y="190.0" transform="rotate(-270, 100.0, 190.0)" />
  <text for="Vin" x="115.0" y="190.0" style="font-family:arial;font-size:13px;stroke-width:0.5;stroke:#CC0000;fill:#CC0000;">Vin</text>
  <use id="Iout" class="other" xlink:href="#WB_CURRENT_LOAD" x="2425.0" y="415.0" transform="rotate(-270, 2425.0, 415.0)" />
  <text for="Iout" x="2440.0" y="415.0" style="font-family:arial;font-size:13px;stroke-width:0.5;stroke:#CC0000;fill:#CC0000;">Iout</text>
  <line x1="1130.0" y1="425.0" x2="1190.0" y2="425.0" stroke="#000000" stroke-width="2" fill="none" />
  <line x1="1130.0" y1="425.0" x2="1130.0" y2="335.0" stroke="#000000" stroke-width="2" fill="none" />
  <line x1="1130.0" y1="640.0" x2="1735.0" y2="640.0" stroke="#000000" stroke-width="2" fill="none" />
  <line x1="1130.0" y1="455.0" x2="1130.0" y2="640.0" stroke="#000000" stroke-width="2" fill="none" />
  <line x1="1735.0" y1="630.0" x2="1735.0" y2="650.0" stroke="#000000" stroke-width="2" fill="none" />
  <line x1="1735.0" y1="760.0" x2="1735.0" y2="710.0" stroke="#000000" stroke-width="2" fill="none" />
  <line x1="1735.0" y1="570.0" x2="1735.0" y2="545.0" stroke="#000000" stroke-width="2" fill="none" />
  <line x1="1130.0" y1="455.0" x2="1200.0" y2="455.0" stroke="#000000" stroke-width="2" fill="none" />
  <line x1="1060.0" y1="385.0" x2="1060.0" y2="285.0" stroke="#000000" stroke-width="2" fill="none" />
  <line x1="1060.0" y1="385.0" x2="1190.0" y2="385.0" stroke="#000000" stroke-width="2" fill="none" />
  <line x1="610.0" y1="560.0" x2="660.0" y2="560.0" stroke="#000000" stroke-width="2" fill="none" />
  <line x1="660.0" y1="600.0" x2="660.0" y2="530.0" stroke="#000000" stroke-width="2" fill="none" />
  <line x1="660.0" y1="600.0" x2="725.0" y2="600.0" stroke="#000000" stroke-width="2" fill="none" />
  <line x1="675.0" y1="530.0" x2="660.0" y2="530.0" stroke="#000000" stroke-width="2" fill="none" />
  <line x1="735.0" y1="530.0" x2="770.0" y2="530.0" stroke="#000000" stroke-width="2" fill="none" />
  <line x1="785.0" y1="600.0" x2="850.0" y2="600.0" stroke="#000000" stroke-width="2" fill="none" />
  <line x1="830.0" y1="530.0" x2="850.0" y2="530.0" stroke="#000000" stroke-width="2" fill="none" />
  <line x1="850.0" y1="600.0" x2="850.0" y2="475.0" stroke="#000000" stroke-width="2" fill="none" />
  <line x1="850.0" y1="475.0" x2="1190.0" y2="475.0" stroke="#000000" stroke-width="2" fill="none" />
  <line x1="1535.0" y1="500.0" x2="1535.0" y2="405.0" stroke="#000000" stroke-width="2" fill="none" />
  <line x1="1435.0" y1="500.0" x2="1535.0" y2="500.0" stroke="#000000" stroke-width="2" fill="none" />
  <line x1="1380.0" y1="405.0" x2="1535.0" y2="405.0" stroke="#000000" stroke-width="2" fill="none" />
  <line x1="245.0" y1="270.0" x2="245.0" y2="365.0" stroke="#000000" stroke-width="2" fill="none" />
  <line x1="645.0" y1="260.0" x2="645.0" y2="250.0" stroke="#000000" stroke-width="2" fill="none" />
  <line x1="645.0" y1="175.0" x2="645.0" y2="190.0" stroke="#000000" stroke-width="2" fill="none" />
  <line x1="645.0" y1="175.0" x2="730.0" y2="175.0" stroke="#000000" stroke-width="2" fill="none" />
  <line x1="730.0" y1="335.0" x2="1190.0" y2="335.0" stroke="#000000" stroke-width="2" fill="none" />
  <line x1="730.0" y1="175.0" x2="730.0" y2="335.0" stroke="#000000" stroke-width="2" fill="none" />
  <line x1="790.0" y1="260.0" x2="790.0" y2="250.0" stroke="#000000" stroke-width="2" fill="none" />
  <line x1="790.0" y1="190.0" x2="790.0" y2="175.0" stroke="#000000" stroke-width="2" fill="none" />
  <line x1="885.0" y1="255.0" x2="885.0" y2="415.0" stroke="#000000" stroke-width="2" fill="none" />
  <line x1="885.0" y1="195.0" x2="885.0" y2="175.0" stroke="#000000" stroke-width="2" fill="none" />
  <line x1="940.0" y1="575.0" x2="940.0" y2="600.0" stroke="#000000" stroke-width="2" fill="none" />
  <line x1="940.0" y1="515.0" x2="940.0" y2="495.0" stroke="#000000" stroke-width="2" fill="none" />
  <line x1="940.0" y1="495.0" x2="1190.0" y2="495.0" stroke="#000000" stroke-width="2" fill="none" />
  <line x1="980.0" y1="175.0" x2="790.0" y2="175.0" stroke="#000000" stroke-width="2" fill="none" />
  <line x1="980.0" y1="175.0" x2="980.0" y2="315.0" stroke="#000000" stroke-width="2" fill="none" />
  <line x1="1030.0" y1="285.0" x2="1030.0" y2="110.0" stroke="#000000" stroke-width="2" fill="none" />
  <line x1="1190.0" y1="415.0" x2="885.0" y2="415.0" stroke="#000000" stroke-width="2" fill="none" />
  <line x1="1190.0" y1="315.0" x2="980.0" y2="315.0" stroke="#000000" stroke-width="2" fill="none" />
  <line x1="1190.0" y1="285.0" x2="1030.0" y2="285.0" stroke="#000000" stroke-width="2" fill="none" />
  <line x1="1380.0" y1="525.0" x2="1405.0" y2="525.0" stroke="#000000" stroke-width="2" fill="none" />
  <line x1="1380.0" y1="505.0" x2="1405.0" y2="505.0" stroke="#000000" stroke-width="2" fill="none" />
  <line x1="1380.0" y1="495.0" x2="1405.0" y2="495.0" stroke="#000000" stroke-width="2" fill="none" />
  <line x1="1380.0" y1="425.0" x2="1435.0" y2="425.0" stroke="#000000" stroke-width="2" fill="none" />
  <line x1="1380.0" y1="385.0" x2="1605.0" y2="385.0" stroke="#000000" stroke-width="2" fill="none" />
  <line x1="1380.0" y1="365.0" x2="1625.0" y2="365.0" stroke="#000000" stroke-width="2" fill="none" />
  <line x1="1380.0" y1="345.0" x2="1645.0" y2="345.0" stroke="#000000" stroke-width="2" fill="none" />
  <line x1="1380.0" y1="305.0" x2="1645.0" y2="305.0" stroke="#000000" stroke-width="2" fill="none" />
  <line x1="1380.0" y1="285.0" x2="1445.0" y2="285.0" stroke="#000000" stroke-width="2" fill="none" />
  <line x1="1405.0" y1="540.0" x2="1435.0" y2="540.0" stroke="#000000" stroke-width="2" fill="none" />
  <line x1="1405.0" y1="495.0" x2="1405.0" y2="540.0" stroke="#000000" stroke-width="2" fill="none" />
  <line x1="1435.0" y1="550.0" x2="1435.0" y2="485.0" stroke="#000000" stroke-width="2" fill="none" />
  <line x1="1445.0" y1="175.0" x2="1445.0" y2="285.0" stroke="#000000" stroke-width="2" fill="none" />
  <line x1="1445.0" y1="175.0" x2="1525.0" y2="175.0" stroke="#000000" stroke-width="2" fill="none" />
  <line x1="1525.0" y1="260.0" x2="1525.0" y2="325.0" stroke="#000000" stroke-width="2" fill="none" />
  <line x1="1525.0" y1="200.0" x2="1525.0" y2="175.0" stroke="#000000" stroke-width="2" fill="none" />
  <line x1="1580.0" y1="775.0" x2="1580.0" y2="760.0" stroke="#000000" stroke-width="2" fill="none" />
  <line x1="1605.0" y1="545.0" x2="2090.0" y2="545.0" stroke="#000000" stroke-width="2" fill="none" />
  <line x1="1605.0" y1="385.0" x2="1605.0" y2="545.0" stroke="#000000" stroke-width="2" fill="none" />
  <line x1="1625.0" y1="530.0" x2="1985.0" y2="530.0" stroke="#000000" stroke-width="2" fill="none" />
  <line x1="1625.0" y1="365.0" x2="1625.0" y2="530.0" stroke="#000000" stroke-width="2" fill="none" />
  <line x1="1645.0" y1="445.0" x2="1645.0" y2="345.0" stroke="#000000" stroke-width="2" fill="none" />
  <line x1="1645.0" y1="305.0" x2="1645.0" y2="210.0" stroke="#000000" stroke-width="2" fill="none" />
  <line x1="1645.0" y1="210.0" x2="1795.0" y2="210.0" stroke="#000000" stroke-width="2" fill="none" />
  <line x1="1805.0" y1="445.0" x2="1645.0" y2="445.0" stroke="#000000" stroke-width="2" fill="none" />
  <line x1="1825.0" y1="325.0" x2="1825.0" y2="240.0" stroke="#000000" stroke-width="2" fill="none" />
  <line x1="1825.0" y1="180.0" x2="1825.0" y2="110.0" stroke="#000000" stroke-width="2" fill="none" />
  <line x1="1835.0" y1="495.0" x2="1835.0" y2="475.0" stroke="#000000" stroke-width="2" fill="none" />
  <line x1="1835.0" y1="415.0" x2="1835.0" y2="325.0" stroke="#000000" stroke-width="2" fill="none" />
  <line x1="1985.0" y1="530.0" x2="1985.0" y2="325.0" stroke="#000000" stroke-width="2" fill="none" />
  <line x1="2005.0" y1="325.0" x2="1965.0" y2="325.0" stroke="#000000" stroke-width="2" fill="none" />
  <line x1="2090.0" y1="545.0" x2="2090.0" y2="325.0" stroke="#000000" stroke-width="2" fill="none" />
  <line x1="2180.0" y1="575.0" x2="2180.0" y2="760.0" stroke="#000000" stroke-width="2" fill="none" />
  <line x1="2345.0" y1="760.0" x2="1580.0" y2="760.0" stroke="#000000" stroke-width="2" fill="none" />
  <line x1="2345.0" y1="545.0" x2="2345.0" y2="760.0" stroke="#000000" stroke-width="2" fill="none" />
  <line x1="2065.0" y1="325.0" x2="2425.0" y2="325.0" stroke="#000000" stroke-width="2" fill="none" />
  <line x1="2180.0" y1="515.0" x2="2180.0" y2="325.0" stroke="#000000" stroke-width="2" fill="none" />
  <line x1="1380.0" y1="325.0" x2="1905.0" y2="325.0" stroke="#000000" stroke-width="2" fill="none" />
  <line x1="245.0" y1="210.0" x2="245.0" y2="110.0" stroke="#000000" stroke-width="2" fill="none" />
  <line x1="100.0" y1="110.0" x2="1825.0" y2="110.0" stroke="#000000" stroke-width="2" fill="none" />
  <line x1="100.0" y1="330.0" x2="245.0" y2="330.0" stroke="#000000" stroke-width="2" fill="none" />
  <line x1="2345.0" y1="545.0" x2="2425.0" y2="545.0" stroke="#000000" stroke-width="2" fill="none" />
  <line x1="100.0" y1="160.0" x2="100.0" y2="110.0" stroke="#000000" stroke-width="2" fill="none" />
  <line x1="100.0" y1="330.0" x2="100.0" y2="220.0" stroke="#000000" stroke-width="2" fill="none" />
  <line x1="2425.0" y1="385.0" x2="2425.0" y2="325.0" stroke="#000000" stroke-width="2" fill="none" />
  <line x1="2425.0" y1="545.0" x2="2425.0" y2="445.0" stroke="#000000" stroke-width="2" fill="none" />
  <circle cx="1735.0" cy="640.0" r="5" stroke="#000000" stroke-width="0" fill="#000000" />
  <circle cx="660.0" cy="560.0" r="5" stroke="#000000" stroke-width="0" fill="#000000" />
  <circle cx="850.0" cy="530.0" r="5" stroke="#000000" stroke-width="0" fill="#000000" />
  <circle cx="245.0" cy="330.0" r="5" stroke="#000000" stroke-width="0" fill="#000000" />
  <circle cx="1130.0" cy="335.0" r="5" stroke="#000000" stroke-width="0" fill="#000000" />
  <circle cx="885.0" cy="175.0" r="5" stroke="#000000" stroke-width="0" fill="#000000" />
  <circle cx="1060.0" cy="285.0" r="5" stroke="#000000" stroke-width="0" fill="#000000" />
  <circle cx="1405.0" cy="525.0" r="5" stroke="#000000" stroke-width="0" fill="#000000" />
  <circle cx="1405.0" cy="505.0" r="5" stroke="#000000" stroke-width="0" fill="#000000" />
  <circle cx="1435.0" cy="500.0" r="5" stroke="#000000" stroke-width="0" fill="#000000" />
  <circle cx="1435.0" cy="540.0" r="5" stroke="#000000" stroke-width="0" fill="#000000" />
  <circle cx="1735.0" cy="545.0" r="5" stroke="#000000" stroke-width="0" fill="#000000" />
  <circle cx="1985.0" cy="325.0" r="5" stroke="#000000" stroke-width="0" fill="#000000" />
  <circle cx="1735.0" cy="760.0" r="5" stroke="#000000" stroke-width="0" fill="#000000" />
  <circle cx="2180.0" cy="760.0" r="5" stroke="#000000" stroke-width="0" fill="#000000" />
  <circle cx="2090.0" cy="325.0" r="5" stroke="#000000" stroke-width="0" fill="#000000" />
  <circle cx="2180.0" cy="325.0" r="5" stroke="#000000" stroke-width="0" fill="#000000" />
  <circle cx="1525.0" cy="325.0" r="5" stroke="#000000" stroke-width="0" fill="#000000" />
  <circle cx="1825.0" cy="325.0" r="5" stroke="#000000" stroke-width="0" fill="#000000" />
  <circle cx="1835.0" cy="325.0" r="5" stroke="#000000" stroke-width="0" fill="#000000" />
  <circle cx="1030.0" cy="110.0" r="5" stroke="#000000" stroke-width="0" fill="#000000" />
  <circle cx="245.0" cy="110.0" r="5" stroke="#000000" stroke-width="0" fill="#000000" />
</svg>

